<svg width="385" height="88" viewBox="0 0 385 88" fill="none" xmlns="http://www.w3.org/2000/svg">
<g filter="url(#filter0_d_1_272)">
<path fill-rule="evenodd" clip-rule="evenodd" d="M163.002 33.7058C157 24.746 148.452 16 137.668 16H41C29.402 16 20 25.402 20 37V55C20 66.598 29.402 76 41 76H344C355.598 76 365 66.598 365 55V37C365 25.402 355.598 16 344 16H248.293C237.509 16 228.961 24.746 222.959 33.7058C216.36 43.5552 205.394 50 192.98 50C180.567 50 169.601 43.5552 163.002 33.7058Z" fill="white"/>
</g>
<defs>
<filter id="filter0_d_1_272" x="0" y="0" width="385" height="100" filterUnits="userSpaceOnUse" color-interpolation-filters="sRGB">
<feFlood flood-opacity="0" result="BackgroundImageFix"/>
<feColorMatrix in="SourceAlpha" type="matrix" values="0 0 0 0 0 0 0 0 0 0 0 0 0 0 0 0 0 0 127 0" result="hardAlpha"/>
<feOffset dy="4"/>
<feGaussianBlur stdDeviation="10"/>
<feComposite in2="hardAlpha" operator="out"/>
<feColorMatrix type="matrix" values="0 0 0 0 0.984314 0 0 0 0 0.984314 0 0 0 0 0.976471 0 0 0 0.2 0"/>
<feBlend mode="difference" in2="BackgroundImageFix" result="effect1_dropShadow_1_272"/>
<feBlend mode="normal" in="SourceGraphic" in2="effect1_dropShadow_1_272" result="shape"/>
</filter>
</defs>
</svg>
