<svg width="16" height="16" viewBox="0 0 16 16" fill="none" xmlns="http://www.w3.org/2000/svg">
<path fill-rule="evenodd" clip-rule="evenodd" d="M1.07077 4.05389C1.40919 3.90885 1.80111 4.06562 1.94615 4.40404L1.33338 4.66665C1.94615 4.40404 1.94624 4.40426 1.94615 4.40404L1.9458 4.40324C1.94561 4.40281 1.94575 4.40312 1.9458 4.40324L1.94841 4.40915C1.95109 4.41516 1.95568 4.42537 1.96221 4.43951C1.97527 4.46779 1.99606 4.51171 2.02472 4.56903C2.0821 4.68378 2.17071 4.85162 2.29166 5.05483C2.53433 5.46251 2.90301 6.00548 3.40525 6.54635C3.52363 6.67384 3.64891 6.80072 3.78123 6.92535C3.78677 6.93038 3.79224 6.93552 3.79764 6.94076C4.78743 7.86759 6.16826 8.66665 8.00005 8.66665C8.80603 8.66665 9.51897 8.51278 10.1473 8.26545C10.9647 7.94373 11.6498 7.4594 12.2105 6.93313C12.8435 6.33891 13.3086 5.70001 13.6156 5.20732C13.7685 4.96193 13.8805 4.75544 13.9533 4.61271C13.9897 4.54142 14.0161 4.48627 14.0328 4.45039C14.0412 4.43246 14.0471 4.41937 14.0506 4.4115L14.054 4.40404C14.1991 4.06581 14.591 3.90889 14.9293 4.05389C15.2677 4.19893 15.4245 4.59085 15.2795 4.92927L14.6667 4.66665C15.2795 4.92927 15.2795 4.92911 15.2795 4.92927L15.278 4.93261L15.2757 4.9381L15.268 4.95533C15.2617 4.96954 15.2528 4.98917 15.2413 5.0138C15.2183 5.06303 15.185 5.13235 15.1411 5.21848C15.0533 5.39058 14.9227 5.63071 14.7472 5.91244C14.4788 6.34321 14.1014 6.87745 13.6065 7.41618L14.1381 7.94781C14.3985 8.20816 14.3985 8.63027 14.1381 8.89062C13.8778 9.15097 13.4557 9.15097 13.1953 8.89062L12.6352 8.3305C12.259 8.63433 11.838 8.9209 11.3706 9.16812L11.8922 9.96973C12.093 10.2783 12.0056 10.6913 11.697 10.8921C11.3884 11.0929 10.9754 11.0055 10.7746 10.6969L10.1176 9.68723C9.66497 9.82599 9.18139 9.92434 8.66672 9.97043V11C8.66672 11.3682 8.36824 11.6667 8.00005 11.6667C7.63186 11.6667 7.33338 11.3682 7.33338 11V9.97053C6.81696 9.92439 6.33351 9.82586 5.88231 9.6875L5.22551 10.6969C5.0247 11.0055 4.61174 11.0929 4.30313 10.8921C3.99452 10.6913 3.90712 10.2783 4.10793 9.96973L4.62953 9.1681C4.16278 8.92108 3.74172 8.63451 3.36505 8.33035L2.80479 8.89062C2.54444 9.15097 2.12233 9.15097 1.86198 8.89062C1.60163 8.63027 1.60163 8.20816 1.86198 7.94781L2.39361 7.41618C1.83028 6.80301 1.41856 6.19481 1.14594 5.73681C1.00648 5.50252 0.902381 5.30578 0.832151 5.16532C0.797011 5.09504 0.770275 5.0387 0.751762 4.99862C0.742504 4.97857 0.735295 4.96258 0.730114 4.95093L0.723857 4.93674L0.721863 4.93215L0.721148 4.93049L0.720861 4.92983C0.720737 4.92954 0.720621 4.92927 1.33338 4.66665L0.720861 4.92983C0.575824 4.59141 0.732351 4.19893 1.07077 4.05389Z" fill="#B8B8B8"/>
</svg>
