<svg width="21" height="22" viewBox="0 0 21 22" fill="none" xmlns="http://www.w3.org/2000/svg">
<path d="M20.8044 9.25675L20.6984 8.80722H10.9278V12.9425H16.7656C16.1595 15.8207 13.347 17.3357 11.0497 17.3357C9.37812 17.3357 7.61609 16.6325 6.44984 15.5024C5.83453 14.8966 5.34474 14.1754 5.00853 13.38C4.67231 12.5847 4.49626 11.7308 4.49047 10.8674C4.49047 9.1255 5.27328 7.38316 6.41234 6.23706C7.5514 5.09097 9.27171 4.44972 10.9822 4.44972C12.9411 4.44972 14.345 5.48988 14.87 5.96425L17.8086 3.04113C16.9466 2.28363 14.5784 0.374878 10.8875 0.374878C8.03984 0.374878 5.30937 1.46566 3.31344 3.45503C1.34375 5.41394 0.324219 8.24659 0.324219 10.8749C0.324219 13.5032 1.28891 16.1942 3.19766 18.1686C5.23719 20.2742 8.12562 21.3749 11.0998 21.3749C13.8059 21.3749 16.3709 20.3146 18.1991 18.3908C19.9962 16.4971 20.9258 13.8767 20.9258 11.1299C20.9258 9.97347 20.8095 9.28675 20.8044 9.25675Z" fill="#3D9CFB"/>
</svg>
