<svg width="16" height="16" viewBox="0 0 16 16" fill="none" xmlns="http://www.w3.org/2000/svg">
<path d="M8.00018 1.83337C7.34785 1.83337 6.79156 2.25006 6.58541 2.83333C6.49338 3.09369 6.20772 3.23015 5.94736 3.13813C5.68701 3.0461 5.55054 2.76044 5.64257 2.50008C5.98553 1.52976 6.91089 0.833374 8.00018 0.833374C9.08948 0.833374 10.0148 1.52977 10.3578 2.50008C10.4498 2.76044 10.3134 3.0461 10.053 3.13813C9.79264 3.23015 9.50698 3.09369 9.41496 2.83333C9.2088 2.25006 8.65251 1.83337 8.00018 1.83337Z" fill="#C70600"/>
<path d="M1.8335 4.00004C1.8335 3.7239 2.05735 3.50004 2.3335 3.50004H13.6669C13.943 3.50004 14.1669 3.7239 14.1669 4.00004C14.1669 4.27618 13.943 4.50004 13.6669 4.50004H2.3335C2.05735 4.50004 1.8335 4.27618 1.8335 4.00004Z" fill="#C70600"/>
<path d="M3.94355 5.63345C3.92518 5.35792 3.68693 5.14944 3.4114 5.16781C3.13587 5.18618 2.9274 5.42443 2.94577 5.69997L3.25473 10.3345C3.31173 11.1896 3.35777 11.8804 3.46575 12.4224C3.57802 12.986 3.76896 13.4567 4.16336 13.8257C4.55776 14.1946 5.04012 14.3538 5.60989 14.4284C6.15792 14.5001 6.85021 14.5001 7.70727 14.5H8.29316C9.15022 14.5001 9.84251 14.5001 10.3905 14.4284C10.9603 14.3538 11.4427 14.1946 11.8371 13.8257C12.2315 13.4567 12.4224 12.986 12.5347 12.4224C12.6427 11.8804 12.6887 11.1896 12.7457 10.3345L13.0547 5.69997C13.073 5.42443 12.8646 5.18618 12.589 5.16781C12.3135 5.14944 12.0752 5.35792 12.0569 5.63345L11.7503 10.2329C11.6903 11.1314 11.6477 11.7566 11.554 12.227C11.463 12.6833 11.3362 12.9249 11.1539 13.0954C10.9716 13.2659 10.7222 13.3765 10.2608 13.4368C9.78524 13.499 9.15857 13.5 8.258 13.5H7.74243C6.84187 13.5 6.2152 13.499 5.73959 13.4368C5.27826 13.3765 5.02882 13.2659 4.84655 13.0954C4.66427 12.9249 4.53738 12.6833 4.44648 12.227C4.35277 11.7566 4.31008 11.1314 4.25018 10.2329L3.94355 5.63345Z" fill="#C70600"/>
<path d="M6.2838 6.83586C6.55857 6.80838 6.8036 7.00885 6.83107 7.28362L7.16441 10.617C7.19188 10.8917 6.99141 11.1367 6.71664 11.1642C6.44187 11.1917 6.19685 10.9912 6.16937 10.7165L5.83604 7.38313C5.80856 7.10835 6.00903 6.86333 6.2838 6.83586Z" fill="#C70600"/>
<path d="M10.1644 7.38313C10.1919 7.10835 9.99141 6.86333 9.71664 6.83586C9.44187 6.80838 9.19685 7.00885 9.16937 7.28362L8.83604 10.617C8.80856 10.8917 9.00903 11.1367 9.2838 11.1642C9.55857 11.1917 9.8036 10.9912 9.83107 10.7165L10.1644 7.38313Z" fill="#C70600"/>
</svg>
